HIERARCHY
ROOT Hips
{
	OFFSET -1.789003 -1.627194 -1.929847
	CHANNELS 6 Xposition Yposition Zposition Zrotation Yrotation Xrotation
	JOINT LHipJoint
	{
		OFFSET -2.256987 -2.091851 -2.202384
		CHANNELS 3 Zrotation Yrotation Xrotation
		JOINT LeftUpLeg
		{
			OFFSET -2.218545 -2.471492 -2.752563
			CHANNELS 3 Zrotation Yrotation Xrotation
			JOINT LeftLeg
			{
				OFFSET -2.767411 -2.364558 -2.259553
				CHANNELS 3 Zrotation Yrotation Xrotation
				JOINT LeftFoot
				{
					OFFSET -1.334268 -1.646484 -1.423268
					CHANNELS 3 Zrotation Yrotation Xrotation
					JOINT LeftToeBase
					{
						OFFSET -1.080569 -0.788081 -1.004078
						CHANNELS 3 Zrotation Yrotation Xrotation
						End Site
						{
							OFFSET 0.000000 0.000000 0.000000
						}
					}
				}
			}
		}
	}
	JOINT RHipJoint
	{
		OFFSET -0.553581 -1.291985 -1.022288
		CHANNELS 3 Zrotation Yrotation Xrotation
		JOINT RightUpLeg
		{
			OFFSET -0.066471 -0.002219 0.049141
			CHANNELS 3 Zrotation Yrotation Xrotation
			JOINT RightLeg
			{
				OFFSET 0.004389 -0.071507 -0.156402
				CHANNELS 3 Zrotation Yrotation Xrotation
				JOINT RightFoot
				{
					OFFSET 0.027550 -0.109326 -0.866249
					CHANNELS 3 Zrotation Yrotation Xrotation
					JOINT RightToeBase
					{
						OFFSET -0.407828 -0.653196 -1.057632
						CHANNELS 3 Zrotation Yrotation Xrotation
						End Site
						{
							OFFSET 0.000000 0.000000 0.000000
						}
					}
				}
			}
		}
	}
	JOINT LowerBack
	{
		OFFSET -0.849213 -1.399991 -1.222396
		CHANNELS 3 Zrotation Yrotation Xrotation
		JOINT Spine
		{
			OFFSET -1.365693 -1.000728 -0.709444
			CHANNELS 3 Zrotation Yrotation Xrotation
			JOINT Spine1
			{
				OFFSET -1.221256 -1.661238 -1.649822
				CHANNELS 3 Zrotation Yrotation Xrotation
				JOINT Neck
				{
					OFFSET -2.039468 -1.397539 -2.343361
					CHANNELS 3 Zrotation Yrotation Xrotation
					JOINT Neck1
					{
						OFFSET -1.566386 -2.326656 -1.955153
						CHANNELS 3 Zrotation Yrotation Xrotation
						JOINT Head
						{
							OFFSET -1.464905 -1.533737 -1.697851
							CHANNELS 3 Zrotation Yrotation Xrotation
							End Site
							{
								OFFSET 0.000000 0.000000 0.000000
							}
						}
					}
				}
				JOINT LeftShoulder
				{
					OFFSET -1.413413 -1.807632 -1.865894
					CHANNELS 3 Zrotation Yrotation Xrotation
					JOINT LeftArm
					{
						OFFSET -2.005966 -2.874942 -2.561301
						CHANNELS 3 Zrotation Yrotation Xrotation
						JOINT LeftForeArm
						{
							OFFSET -2.059181 -1.567439 -1.484472
							CHANNELS 3 Zrotation Yrotation Xrotation
							JOINT LeftHand
							{
								OFFSET -2.003903 -2.911794 -2.925333
								CHANNELS 3 Zrotation Yrotation Xrotation
								JOINT LeftFingerBase
								{
									OFFSET -3.088362 -2.602623 -2.568943
									CHANNELS 3 Zrotation Yrotation Xrotation
									JOINT LeftHandIndex1
									{
										OFFSET -2.432590 -3.085542 -2.945885
										CHANNELS 3 Zrotation Yrotation Xrotation
										End Site
										{
											OFFSET 0.000000 0.000000 0.000000
										}
									}
								}
								JOINT LThumb
								{
									OFFSET -3.273076 -2.501151 -2.194695
									CHANNELS 3 Zrotation Yrotation Xrotation
									End Site
									{
										OFFSET 0.000000 0.000000 0.000000
									}
								}
							}
						}
					}
				}
				JOINT RightShoulder
				{
					OFFSET -1.742317 -1.839404 -1.977647
					CHANNELS 3 Zrotation Yrotation Xrotation
					JOINT RightArm
					{
						OFFSET -2.005769 -1.910324 -1.667748
						CHANNELS 3 Zrotation Yrotation Xrotation
						JOINT RightForeArm
						{
							OFFSET -1.849402 -1.963553 -1.917791
							CHANNELS 3 Zrotation Yrotation Xrotation
							JOINT RightHand
							{
								OFFSET -1.633766 -1.373765 -1.368065
								CHANNELS 3 Zrotation Yrotation Xrotation
								JOINT RightFingerBase
								{
									OFFSET -1.065175 -1.121592 -1.344143
									CHANNELS 3 Zrotation Yrotation Xrotation
									JOINT RightHandIndex1
									{
										OFFSET -0.879570 -1.055917 -0.808335
										CHANNELS 3 Zrotation Yrotation Xrotation
										End Site
										{
											OFFSET 0.000000 0.000000 0.000000
										}
									}
								}
								JOINT RThumb
								{
									OFFSET -0.832962 -0.356634 -0.336727
									CHANNELS 3 Zrotation Yrotation Xrotation
									End Site
									{
										OFFSET 0.104135 0.138344 -0.149541
									}
								}
							}
						}
					}
				}
			}
		}
	}
}
MOTION
Frames: 12
Frame Time: 0.008333
2.956462 18.019325 10.289270 1.828562 2.696042 9.186160 1.668092 2.340792 0.605994 -16.046244 -2.830229 -3.673516 7.318691 16.262777 49.434345 3.433453 16.024776 21.225945 1.563063 -3.710230 -10.720282 -4.980817 -3.254023 3.548141 31.587660 14.557920 0.841467 -1.368298 -10.196415 31.995661 -0.592513 -5.175264 -5.981831 -1.670059 -4.045673 -19.683512 -2.236598 -0.270424 -0.989155 2.141317 1.261215 -2.176450 1.374524 4.510172 9.310943 3.606382 2.878967 -9.268423 3.985798 -1.042230 19.082560 3.466723 -0.147421 7.951164 -1.389045 3.276340 1.070435 -74.365273 21.053257 46.450356 31.142868 1.649055 23.258944 0.727362 3.367102 19.737513 28.073452 14.741138 6.548470 -7.125000 0.000000 0.000000 18.463892 72.622299 55.759750 6.868962 4.100044 0.891520 92.131813 10.360882 57.737980 -0.841447 35.694515 8.566969 2.806536 2.406133 38.285980 66.170639 39.598377 48.424057 7.125000 0.000000 0.000000 62.902382 4.801048 47.885265
2.978592 18.007515 8.865422 1.583633 2.589245 8.924742 1.448417 2.073807 -0.204353 -17.305462 -4.510742 -7.613929 6.693367 16.165459 52.917099 3.795147 18.363775 22.946766 1.550124 -2.812822 -9.597378 -4.190269 -2.686867 4.099818 34.349323 16.019709 1.771980 -1.174016 -10.403392 33.241959 0.390808 -2.041986 -1.708239 -1.287026 -3.025435 -14.104488 -1.464821 -0.039736 -0.393662 2.226999 0.693853 -2.353852 0.690401 3.593188 8.814911 3.335024 2.208086 -9.347750 3.519410 -1.304462 18.760965 2.668300 -0.865126 5.553314 -3.464368 1.787154 0.877108 -75.825180 18.081413 40.652813 28.365646 2.140894 26.022148 0.935733 3.614736 22.919989 28.600016 12.516362 5.300372 -7.125000 0.000000 0.000000 16.455101 73.409927 52.265522 7.350961 4.542468 0.857091 91.743881 9.771370 53.168579 -0.308438 35.808548 8.533683 2.744869 2.358104 38.712830 77.952507 44.178638 57.413544 7.125000 0.000000 0.000000 56.137798 2.028946 45.482128
2.552261 17.901310 5.854618 1.747297 3.070947 9.986420 1.992850 2.296501 -0.521647 -17.562275 -4.865103 -7.427329 6.809078 14.339846 47.963501 3.779220 18.582422 22.448069 1.230315 -2.059274 -4.919895 -2.270695 -1.275427 4.857946 37.460304 18.157059 4.162779 -0.703012 -10.024823 34.580482 0.901078 -6.676304 -5.351360 -1.565599 -4.185254 -16.749338 -1.086024 1.214604 0.442297 2.615386 1.236496 -3.825257 -0.341097 2.494395 5.252148 0.160328 0.157144 -11.654627 3.052279 -1.441015 17.704212 2.569646 -0.715324 7.002680 -1.822718 2.701447 1.220973 -74.201630 19.888504 47.000130 26.775768 0.615194 26.650848 1.029113 3.588044 27.745565 33.628700 18.423244 9.228003 -7.125000 0.000000 0.000000 21.097029 71.516144 50.239368 7.740262 4.847896 1.297750 95.992996 15.468672 66.720001 2.427400 36.652046 9.706455 2.968326 2.615450 42.502052 81.376968 40.347729 31.821552 7.125000 0.000000 0.000000 62.562576 1.244869 47.579201
2.629728 17.883385 8.484499 2.421988 3.166672 9.943658 1.646329 2.587126 0.187330 -16.955574 -4.830124 -7.383809 7.987380 16.624105 56.725227 5.935185 28.946335 34.302818 2.376604 1.448814 1.729560 -1.195057 -0.921898 4.620679 37.921543 20.428387 5.945292 -0.625042 -11.068076 31.230198 0.052358 -7.959309 -5.155561 -1.501839 -3.582628 -16.117863 -0.162479 1.444848 -0.141304 2.931441 1.521272 -4.408149 -0.734932 1.692887 2.864681 -0.537664 -0.482402 -13.716251 2.821463 -3.180215 14.282473 0.928768 -2.418179 4.658893 -3.987193 1.507166 0.684792 -78.938866 12.018946 35.125072 18.949329 -1.577461 24.790995 1.052338 3.702393 32.860157 36.226028 24.703772 13.573563 -7.125000 0.000000 0.000000 29.536888 75.048843 57.571934 8.735055 4.428964 1.346023 97.363403 18.630932 72.483315 4.867913 36.052925 8.270791 2.892975 2.552345 41.900612 78.415154 39.492153 18.848911 7.125000 0.000000 0.000000 41.717133 -11.523821 28.044491
2.644752 17.807102 4.696669 2.028082 2.902702 9.213345 0.806508 2.744008 0.336819 -15.931833 -2.468267 -5.910625 8.601773 17.203480 55.764404 6.892581 31.364084 30.003803 1.778247 -0.784912 -5.293293 -3.554924 -1.905626 2.270110 32.314404 18.054989 -1.724625 -1.836760 -12.955401 24.280659 -1.468167 -8.199912 -6.213809 -1.136677 -0.754314 -6.432086 2.939975 3.265094 2.307748 3.035126 1.728391 -3.784677 0.098783 2.585832 3.539183 -1.962076 -0.985688 -13.149678 2.509438 -3.553874 12.951084 0.116575 -2.396632 4.473013 -4.593284 0.660869 0.652921 -78.609932 14.417556 38.411064 16.802538 -5.555994 18.227600 0.788059 3.343005 19.866703 29.935623 13.363771 6.984591 -7.125000 0.000000 0.000000 21.461576 70.278633 45.075493 8.350446 4.403406 1.510266 98.285698 18.152441 71.339500 2.056216 34.531151 7.788891 2.754306 2.353175 38.903351 54.105225 29.649759 12.121785 7.125000 0.000000 0.000000 38.864227 -16.082912 4.342142
2.165832 17.767412 3.803025 1.683753 2.591512 8.638792 0.133508 2.482729 0.315307 -15.555122 -2.540726 -7.782993 7.977233 15.851976 51.826363 6.312242 29.703043 28.447266 1.635638 -1.318854 -7.653780 -4.622054 -2.401036 1.734179 30.846369 17.839134 -2.011551 -1.609030 -12.169910 23.590111 -2.322822 -11.166026 -12.741352 -1.787541 -2.734260 -12.348690 1.805272 3.157594 2.512779 3.227203 2.346045 -3.138105 0.419906 2.814562 3.234987 -2.473743 -1.494939 -13.537319 2.390497 -3.677774 12.143231 -0.529613 -2.337402 4.661261 -4.185284 0.703014 0.745228 -78.565475 16.651810 39.654713 12.158071 -9.989927 11.780766 0.484830 2.614907 9.600323 28.326509 13.008020 6.953633 -7.125000 0.000000 0.000000 17.625257 64.512077 34.822647 6.162907 3.357913 1.340391 98.292839 16.759403 67.411530 0.873883 32.393669 5.942412 2.508978 2.228288 36.905197 43.741470 28.894535 6.401225 7.125000 0.000000 0.000000 41.760498 -14.028574 13.444649
1.736617 17.688745 1.648111 1.709874 3.013620 7.652586 -0.292434 2.840065 -0.325198 -14.204452 -0.962067 -8.051988 7.966442 17.629143 56.816559 6.418161 30.749237 30.536848 2.019541 -1.637307 -7.045553 -4.848743 -2.624925 1.283922 29.479338 19.278145 0.423609 -1.270707 -11.323781 29.582039 -0.571798 -6.118328 -9.733541 -1.816459 -2.705038 -5.730508 3.786945 2.748767 2.003721 3.141898 1.954556 -2.157331 0.782309 2.603363 2.287107 -4.420917 -2.655171 -14.969815 2.537330 -2.254066 13.857128 0.556293 -1.704423 6.717484 -1.932662 3.562298 1.775955 -72.836304 26.970776 51.963448 21.339989 -7.647967 12.531601 0.535336 2.810064 18.214281 29.748301 19.226677 11.387924 -7.125000 0.000000 0.000000 42.697811 90.732910 71.040504 9.859001 6.648219 2.404132 103.413002 22.428291 74.026306 4.124949 36.267948 7.437585 2.966311 2.791992 41.226997 74.087906 37.735352 38.991127 7.125000 0.000000 0.000000 73.106575 -0.406040 48.057800
1.953890 17.711975 4.838990 2.469249 4.921324 9.313675 0.268809 2.581338 -0.267910 -13.729850 -0.350570 -4.192809 9.604959 19.037312 59.217083 7.304039 34.729588 35.703514 2.678160 1.982038 5.556612 -0.534252 -0.921942 3.732733 34.272320 22.879425 4.091091 -0.893416 -10.832044 32.452187 0.145543 -7.580517 -10.631641 -2.227478 -4.308496 -11.220764 1.273016 1.348899 0.299134 2.417432 0.102266 -3.069501 -0.192629 1.952539 0.945078 -4.059263 -2.293632 -13.360639 3.332949 0.561422 17.239202 0.739911 -0.449817 7.648510 -0.468862 4.167131 2.075506 -70.938690 30.970894 58.246040 25.217049 -6.841242 13.853542 0.869644 3.485102 28.476946 34.455669 27.657839 14.665447 -7.125000 0.000000 0.000000 34.891266 86.578041 67.823875 9.470407 6.609797 2.087228 98.896988 19.440762 69.066147 4.181989 36.081097 4.158368 2.512531 2.135683 31.306597 58.050652 26.180130 16.696882 7.125000 0.000000 0.000000 64.702591 -8.913509 40.774803
1.557795 17.706985 3.979362 1.616520 3.903305 8.211187 -0.527750 2.448261 0.473958 -13.137044 0.110403 -3.312685 8.823030 17.478580 53.929810 5.445874 28.474766 38.404629 3.068742 2.564508 2.012515 -0.754490 -0.636863 3.772170 35.139328 19.477631 -0.968960 -1.209247 -11.617967 27.635014 -1.604504 -14.258180 -14.851082 -2.421820 -4.806725 -13.130547 0.903238 0.865866 -0.310457 2.661399 -0.343095 -3.603492 -0.333408 0.910864 -1.330058 -6.631336 -4.816317 -14.489518 2.691611 -1.662879 14.374356 -1.634769 -2.426691 5.272966 -2.523691 1.867587 1.140630 -75.467087 25.256588 52.421318 26.913612 -6.915209 14.742046 0.728420 2.612216 25.788860 35.054146 34.148560 20.843740 -7.125000 0.000000 0.000000 34.833073 87.117935 72.280144 9.534614 7.269426 2.114211 98.019424 18.162773 63.876148 3.823459 35.878006 6.712935 2.884195 3.240427 46.929276 101.665771 48.092018 53.981014 7.125000 0.000000 0.000000 62.829372 -4.903263 43.362778
1.477353 17.695522 3.308019 1.529297 3.603154 9.084347 0.351082 2.534698 0.850708 -12.510690 1.757010 -2.100207 8.967106 17.355330 54.403023 5.907912 30.330381 40.486893 3.204568 3.234214 4.376909 0.508093 -0.357759 4.105291 39.226570 23.259958 4.670013 0.208365 -10.350226 28.631220 -1.601301 -14.663842 -15.626226 -2.386166 -4.968909 -13.111647 0.509489 0.057963 -1.747207 1.973209 -1.571313 -4.192004 -0.593527 0.748229 -2.156192 -7.321725 -5.566130 -15.210470 2.785530 -1.208954 15.136436 -1.128136 -2.139871 5.681449 -1.552422 2.045499 1.094159 -76.157982 23.585857 53.876297 27.242815 -7.108707 15.787224 0.574934 2.039785 16.809069 30.001297 29.501581 20.056116 -7.125000 0.000000 0.000000 36.904331 90.932404 81.922836 11.444160 8.038260 2.107320 97.773224 19.349289 64.960342 2.396615 34.800323 5.293889 2.559008 2.820279 39.688492 80.247726 39.569996 35.995094 7.125000 0.000000 0.000000 58.930527 -7.022085 37.133785
1.276712 17.680378 0.333687 1.645039 3.738876 8.737097 -0.683413 1.989005 0.595206 -13.387151 1.838287 -4.674957 8.385714 15.283701 48.691486 6.113698 29.635916 44.402397 3.581697 4.529819 12.064290 0.881194 0.063760 4.604612 39.884827 25.577820 9.304340 1.123280 -8.425408 34.026760 -0.606196 -10.612623 -13.778255 -2.022769 -3.335064 -10.666162 1.510903 1.600864 0.768025 2.542717 -0.413508 -5.076692 -1.396786 0.648297 -4.074048 -7.564420 -6.425969 -17.318272 1.986234 -5.935658 8.277599 -5.355444 -4.279602 2.541358 -4.763265 -0.546048 0.188125 -81.457085 13.978968 45.979057 23.174730 -6.980993 18.111380 1.023214 2.994573 27.369755 34.252663 30.330166 21.262438 -7.125000 0.000000 0.000000 18.800880 73.512680 60.486038 8.822817 6.003191 1.519215 92.713585 14.577383 56.270195 -0.329740 34.289482 6.267070 2.382065 2.270887 34.577171 40.224854 25.774250 20.372692 7.125000 0.000000 0.000000 61.018314 -5.968578 33.762360
1.746915 17.744787 4.379954 3.127622 6.146256 9.721148 -0.110692 1.816853 0.754693 -11.511429 3.789774 0.662622 9.128978 16.860615 54.644737 6.938109 33.453941 45.457756 3.541310 5.240091 8.822298 0.690172 0.434244 4.724093 37.730419 21.932184 4.597954 -0.041573 -9.793890 32.763805 -1.181057 -14.860572 -17.997925 -2.474215 -4.619133 -7.782564 2.624640 1.951500 1.701344 3.004818 -0.114579 -4.521124 -1.359489 0.043230 -5.686308 -9.354622 -7.371527 -17.314690 2.335923 -5.523103 9.044630 -4.640187 -4.803462 2.083976 -5.679092 -1.285047 -0.137102 -82.411362 12.546616 36.988167 21.367949 -10.731037 14.931105 0.743513 3.070394 24.687975 33.556751 30.060656 17.859068 -7.125000 0.000000 0.000000 12.869507 76.740303 65.110100 9.841039 7.032501 1.607944 91.921890 12.611723 49.747707 -2.814832 32.870239 5.260560 2.505359 2.384628 39.276093 50.626511 31.146292 31.773348 7.125000 0.000000 0.000000 58.284351 -8.481661 26.506199
